HIERARCHY
ROOT Hips
{
	OFFSET 0.000000 83.214638 0.000000
	CHANNELS 6 Xposition Yposition Zposition Xrotation Yrotation Zrotation
	JOINT Pelvis
	{
		OFFSET 0.000000 0.000000 0.000000
		CHANNELS 3 Xrotation Yrotation Zrotation
		JOINT LeftUpLeg
		{
			OFFSET 8.479700 -4.795502 -0.379100
			CHANNELS 3 Xrotation Yrotation Zrotation
			JOINT LeftLeg
			{
				OFFSET 0.024144 -32.555107 0.112900
				CHANNELS 3 Xrotation Yrotation Zrotation
				JOINT LeftFoot
				{
					OFFSET -0.024144 -32.638630 -3.012600
					CHANNELS 3 Xrotation Yrotation Zrotation
					JOINT LeftToeBase
					{
						OFFSET 0.970200 -13.225400 11.864200
						CHANNELS 3 Xrotation Yrotation Zrotation
						End Site
						{
							OFFSET 0.000000 12.319262 0.000000
						}
					}
					JOINT LFootTongue
					{
						OFFSET 1.142400 -1.059800 6.665200
						CHANNELS 3 Xrotation Yrotation Zrotation
						End Site
						{
							OFFSET 0.000000 12.319262 0.000000
						}
					}
				}
				JOINT LeftPantLeg
				{
					OFFSET 0.918482 -16.533964 -2.284700
					CHANNELS 3 Xrotation Yrotation Zrotation
					End Site
					{
						OFFSET 0.350399 24.744368 0.000000
					}
				}
			}
		}
		JOINT RightUpLeg
		{
			OFFSET -8.479700 -4.795502 -0.379100
			CHANNELS 3 Xrotation Yrotation Zrotation
			JOINT RightLeg
			{
				OFFSET -0.023144 -32.555092 0.112900
				CHANNELS 3 Xrotation Yrotation Zrotation
				JOINT RightFoot
				{
					OFFSET 0.023144 -32.638641 -3.012700
					CHANNELS 3 Xrotation Yrotation Zrotation
					JOINT RightToeBase
					{
						OFFSET -0.970200 -13.225400 11.864200
						CHANNELS 3 Xrotation Yrotation Zrotation
						End Site
						{
							OFFSET 0.000000 12.319244 0.000000
						}
					}
					JOINT RFootTongue
					{
						OFFSET -1.142200 -1.059800 6.665200
						CHANNELS 3 Xrotation Yrotation Zrotation
						End Site
						{
							OFFSET 0.000000 12.319243 0.000000
						}
					}
				}
				JOINT RightPantLeg
				{
					OFFSET -0.919482 -16.533978 -2.284800
					CHANNELS 3 Xrotation Yrotation Zrotation
					End Site
					{
						OFFSET -0.350400 24.744419 0.000000
					}
				}
			}
		}
	}
	JOINT Spine
	{
		OFFSET 0.000000 7.722000 1.166200
		CHANNELS 3 Xrotation Yrotation Zrotation
		JOINT Spine1
		{
			OFFSET 0.000000 12.024101 0.248800
			CHANNELS 3 Xrotation Yrotation Zrotation
			JOINT Spine2
			{
				OFFSET 0.000000 11.502998 -0.491200
				CHANNELS 3 Xrotation Yrotation Zrotation
				JOINT Neck
				{
					OFFSET 0.000000 18.430702 -3.123100
					CHANNELS 3 Xrotation Yrotation Zrotation
					JOINT Head
					{
						OFFSET 0.000000 9.051102 1.034000
						CHANNELS 3 Xrotation Yrotation Zrotation
						JOINT HairB
						{
							OFFSET 0.208400 24.786102 24.822300
							CHANNELS 3 Xrotation Yrotation Zrotation
							End Site
							{
								OFFSET 0.000000 32.263779 0.000000
							}
						}
						JOINT HairA
						{
							OFFSET -7.081100 24.428299 23.196600
							CHANNELS 3 Xrotation Yrotation Zrotation
							End Site
							{
								OFFSET 0.000000 32.263779 0.000000
							}
						}
						JOINT Hat
						{
							OFFSET 16.728800 15.048294 -15.439601
							CHANNELS 3 Xrotation Yrotation Zrotation
							End Site
							{
								OFFSET 0.000000 32.263779 0.000000
							}
						}
					}
				}
				JOINT LeftShoulder
				{
					OFFSET 6.197800 13.665199 -4.064700
					CHANNELS 3 Xrotation Yrotation Zrotation
					JOINT LeftArm
					{
						OFFSET 7.778100 -0.187103 -1.709300
						CHANNELS 3 Xrotation Yrotation Zrotation
						JOINT LeftForeArm
						{
							OFFSET 22.049376 0.000000 0.000000
							CHANNELS 3 Xrotation Yrotation Zrotation
							JOINT LeftHand
							{
								OFFSET 23.009392 0.000000 0.000000
								CHANNELS 3 Xrotation Yrotation Zrotation
								JOINT LeftHandThumb1
								{
									OFFSET 3.507191 -2.063065 3.133727
									CHANNELS 3 Xrotation Yrotation Zrotation
									JOINT LeftHandThumb2
									{
										OFFSET 3.101337 -1.790558 1.790558
										CHANNELS 3 Xrotation Yrotation Zrotation
										JOINT LeftHandThumb3
										{
											OFFSET 3.058640 -1.765907 1.765906
											CHANNELS 3 Xrotation Yrotation Zrotation
											End Site
											{
												OFFSET -0.415260 3.926476 -0.049563
											}
										}
									}
								}
								JOINT LeftHandIndex1
								{
									OFFSET 11.334419 -0.901459 3.706815
									CHANNELS 3 Xrotation Yrotation Zrotation
									JOINT LeftHandIndex2
									{
										OFFSET 3.283112 0.000000 0.000000
										CHANNELS 3 Xrotation Yrotation Zrotation
										JOINT LeftHandIndex3
										{
											OFFSET 3.323853 0.000000 0.000000
											CHANNELS 3 Xrotation Yrotation Zrotation
											End Site
											{
												OFFSET -1.135597 3.097809 0.402452
											}
										}
									}
								}
								JOINT LeftHandMiddle1
								{
									OFFSET 11.335861 0.000000 0.000000
									CHANNELS 3 Xrotation Yrotation Zrotation
									JOINT LeftHandMiddle2
									{
										OFFSET 3.410492 0.000000 0.000000
										CHANNELS 3 Xrotation Yrotation Zrotation
										JOINT LeftHandMiddle3
										{
											OFFSET 3.312172 0.000000 0.000000
											CHANNELS 3 Xrotation Yrotation Zrotation
											End Site
											{
												OFFSET -1.150200 3.080154 0.400270
											}
										}
									}
								}
								JOINT LeftHandRing1
								{
									OFFSET 11.514786 -0.013176 -3.003090
									CHANNELS 3 Xrotation Yrotation Zrotation
									JOINT LeftHandRing2
									{
										OFFSET 3.053307 0.000000 0.000000
										CHANNELS 3 Xrotation Yrotation Zrotation
										JOINT LeftHandRing3
										{
											OFFSET 3.295807 0.000000 0.000000
											CHANNELS 3 Xrotation Yrotation Zrotation
											End Site
											{
												OFFSET -1.281006 3.013344 0.375733
											}
										}
									}
								}
								JOINT LeftHandPinky1
								{
									OFFSET 10.518692 -0.960396 -5.730441
									CHANNELS 3 Xrotation Yrotation Zrotation
									JOINT LeftHandPinky2
									{
										OFFSET 2.861649 0.000000 0.000000
										CHANNELS 3 Xrotation Yrotation Zrotation
										JOINT LeftHandPinky3
										{
											OFFSET 2.863380 0.000000 0.000000
											CHANNELS 3 Xrotation Yrotation Zrotation
											End Site
											{
												OFFSET -0.843597 2.711159 0.369971
											}
										}
									}
								}
							}
							JOINT LSleeve
							{
								OFFSET 6.676277 -0.344902 -1.011730
								CHANNELS 3 Xrotation Yrotation Zrotation
								End Site
								{
									OFFSET 0.000000 14.885353 0.000000
								}
							}
						}
					}
				}
				JOINT RightShoulder
				{
					OFFSET -6.197800 13.665199 -4.064700
					CHANNELS 3 Xrotation Yrotation Zrotation
					JOINT RightArm
					{
						OFFSET -7.778100 -0.187103 -1.709300
						CHANNELS 3 Xrotation Yrotation Zrotation
						JOINT RightForeArm
						{
							OFFSET -22.049376 0.000000 0.000000
							CHANNELS 3 Xrotation Yrotation Zrotation
							JOINT RightHand
							{
								OFFSET -23.009392 0.000000 0.000000
								CHANNELS 3 Xrotation Yrotation Zrotation
								JOINT RightHandThumb1
								{
									OFFSET -3.507191 -2.063065 3.133727
									CHANNELS 3 Xrotation Yrotation Zrotation
									JOINT RightHandThumb2
									{
										OFFSET -3.101337 -1.790558 1.790558
										CHANNELS 3 Xrotation Yrotation Zrotation
										JOINT RightHandThumb3
										{
											OFFSET -3.058640 -1.765907 1.765906
											CHANNELS 3 Xrotation Yrotation Zrotation
											End Site
											{
												OFFSET 0.415260 3.926476 -0.049563
											}
										}
									}
								}
								JOINT RightHandIndex1
								{
									OFFSET -11.334419 -0.901459 3.706815
									CHANNELS 3 Xrotation Yrotation Zrotation
									JOINT RightHandIndex2
									{
										OFFSET -3.283112 0.000000 0.000000
										CHANNELS 3 Xrotation Yrotation Zrotation
										JOINT RightHandIndex3
										{
											OFFSET -3.323853 0.000000 0.000000
											CHANNELS 3 Xrotation Yrotation Zrotation
											End Site
											{
												OFFSET 1.135597 3.097809 0.402452
											}
										}
									}
								}
								JOINT RightHandMiddle1
								{
									OFFSET -11.335861 0.000000 0.000000
									CHANNELS 3 Xrotation Yrotation Zrotation
									JOINT RightHandMiddle2
									{
										OFFSET -3.410492 0.000000 0.000000
										CHANNELS 3 Xrotation Yrotation Zrotation
										JOINT RightHandMiddle3
										{
											OFFSET -3.312172 0.000000 0.000000
											CHANNELS 3 Xrotation Yrotation Zrotation
											End Site
											{
												OFFSET 1.150200 3.080154 0.400270
											}
										}
									}
								}
								JOINT RightHandRing1
								{
									OFFSET -11.514786 -0.013176 -3.003090
									CHANNELS 3 Xrotation Yrotation Zrotation
									JOINT RightHandRing2
									{
										OFFSET -3.053307 0.000000 0.000000
										CHANNELS 3 Xrotation Yrotation Zrotation
										JOINT RightHandRing3
										{
											OFFSET -3.295807 0.000000 0.000000
											CHANNELS 3 Xrotation Yrotation Zrotation
											End Site
											{
												OFFSET 1.281006 3.013344 0.375733
											}
										}
									}
								}
								JOINT RightHandPinky1
								{
									OFFSET -10.518692 -0.960396 -5.730441
									CHANNELS 3 Xrotation Yrotation Zrotation
									JOINT RightHandPinky2
									{
										OFFSET -2.861649 0.000000 0.000000
										CHANNELS 3 Xrotation Yrotation Zrotation
										JOINT RightHandPinky3
										{
											OFFSET -2.863380 0.000000 0.000000
											CHANNELS 3 Xrotation Yrotation Zrotation
											End Site
											{
												OFFSET 0.843597 2.711159 0.369971
											}
										}
									}
								}
							}
							JOINT RSleeve
							{
								OFFSET -6.676277 -0.344902 -1.011730
								CHANNELS 3 Xrotation Yrotation Zrotation
								End Site
								{
									OFFSET 0.000000 14.885353 0.000000
								}
							}
						}
					}
				}
				JOINT Backpack
				{
					OFFSET 0.000000 -2.471497 36.677502
					CHANNELS 3 Xrotation Yrotation Zrotation
					End Site
					{
						OFFSET 0.000000 20.427315 0.000000
					}
				}
				JOINT Hood
				{
					OFFSET 0.000000 18.754097 -10.431000
					CHANNELS 3 Xrotation Yrotation Zrotation
					JOINT Hood1
					{
						OFFSET 0.000000 -5.011002 -7.685901
						CHANNELS 3 Xrotation Yrotation Zrotation
						End Site
						{
							OFFSET 0.000000 9.175140 0.000000
						}
					}
				}
				JOINT LHoodieString
				{
					OFFSET 5.250500 16.397697 3.089900
					CHANNELS 3 Xrotation Yrotation Zrotation
					JOINT LHoodieString1
					{
						OFFSET 0.257700 -6.364304 3.694600
						CHANNELS 3 Xrotation Yrotation Zrotation
						JOINT LHoodieString2
						{
							OFFSET 0.000000 -9.643799 2.679100
							CHANNELS 3 Xrotation Yrotation Zrotation
							End Site
							{
								OFFSET 0.000000 10.009018 0.000000
							}
						}
					}
				}
				JOINT RHoodieString
				{
					OFFSET -5.250500 16.397697 3.089900
					CHANNELS 3 Xrotation Yrotation Zrotation
					JOINT RHoodieString1
					{
						OFFSET -0.257700 -6.364304 3.694600
						CHANNELS 3 Xrotation Yrotation Zrotation
						JOINT RHoodieString2
						{
							OFFSET 0.000000 -9.643799 2.679100
							CHANNELS 3 Xrotation Yrotation Zrotation
							End Site
							{
								OFFSET 0.000000 10.009018 0.000000
							}
						}
					}
				}
			}
			JOINT LBackpack_Strap
			{
				OFFSET 15.223200 -7.719803 -6.610900
				CHANNELS 3 Xrotation Yrotation Zrotation
				End Site
				{
					OFFSET 0.000000 16.040596 0.000000
				}
			}
			JOINT RBackpack_Strap
			{
				OFFSET -15.223000 -7.719803 -6.610900
				CHANNELS 3 Xrotation Yrotation Zrotation
				End Site
				{
					OFFSET 0.000000 16.040596 0.000000
				}
			}
		}
	}
	JOINT BoyFacialAnim_Joint
	{
		OFFSET 1.000000 -82.208099 -1.550900
		CHANNELS 3 Xrotation Yrotation Zrotation
		End Site
		{
			OFFSET 0.000000 30.012791 0.000000
		}
	}
}
MOTION
Frames: 4
Frame Time: 0.016667
0.829090 74.989304 -0.424576 9.545351 -61.619344 10.152427 0.000001 -0.000000 -0.000000 -36.690605 11.888579 23.486056 36.108007 -6.745320 1.195824 -5.486797 -2.268785 -16.038852 -0.000000 0.000003 -0.000000 -0.000000 0.000003 -0.000000 0.000001 0.000001 0.000000 -31.263770 -19.564163 -32.362819 35.165673 3.482097 -4.082690 -11.011009 0.859196 22.483869 -0.000000 -0.000000 -0.000000 -0.000000 -0.000000 -0.000000 0.000000 -0.000000 -0.000001 15.063718 -0.324094 -4.291271 5.872399 0.563938 -2.798213 5.868719 0.648184 -2.860167 -3.632889 1.437159 3.747493 -20.005949 54.836758 2.407370 0.000000 -0.000000 0.000001 0.000000 -0.000000 0.000001 0.000000 -0.000000 0.000001 1.828094 -3.192673 -12.271577 -39.387399 26.350487 -34.911105 0.429359 -46.808451 0.416179 -10.315073 -0.130711 0.363008 40.109951 -15.297156 -0.360499 5.639817 28.097933 11.338839 -0.000000 0.000000 -0.000000 6.882266 2.840079 -61.140391 8.248005 7.640064 -89.897878 -0.000001 -0.000002 -0.000002 -2.345499 4.688865 -62.655204 8.754163 9.897076 -87.051328 0.000004 0.000003 -0.000003 -9.042446 10.045686 -60.766171 8.524087 9.508837 -66.893035 0.000000 -0.000003 0.000001 -17.946891 14.755003 -51.485840 8.868457 8.667058 -84.811989 0.000004 0.000000 0.000001 -0.000000 0.000002 0.000000 0.632600 7.257362 8.700385 7.936001 -9.680156 53.429903 -22.867424 36.194685 17.955440 -27.369937 10.432887 -17.813541 -2.346173 -6.100558 10.731436 2.364072 -23.806285 -8.771057 0.000000 0.000000 0.000001 -0.054747 0.532104 0.738726 0.019780 -0.087294 5.078502 -0.000002 0.000001 0.000004 0.348257 -5.918521 2.583826 1.432605 -4.204220 24.052098 -0.000001 0.000001 0.000000 1.205849 -11.756056 4.154793 1.794833 -3.771875 26.865400 -0.000001 0.000000 0.000000 2.126233 -19.166858 11.319988 3.354762 -2.122252 18.828526 -0.000000 -0.000001 0.000000 0.000001 -0.000001 -0.000001 0.000002 0.000001 -0.000002 0.000002 0.000001 -0.000002 0.000002 0.000001 -0.000002 0.000002 0.000001 -0.000002 0.000002 0.000001 -0.000001 0.000001 -0.000000 0.000001 0.000002 0.000001 -0.000002 0.000002 0.000001 -0.000001 0.000001 -0.000000 0.000001 0.000001 0.000001 -0.000001 0.000001 0.000001 -0.000001 0.000001 -0.000000 -0.000000 
1.037554 74.743446 -1.212354 9.955860 -55.373088 8.114950 -0.000000 -0.000002 0.000000 -40.833774 8.235691 23.556906 36.366792 -7.985770 1.380675 -3.756452 -4.977912 -15.688548 -0.000000 -0.000002 0.000000 -0.000000 -0.000002 0.000000 -0.000000 -0.000001 0.000001 -31.123553 -19.575896 -31.244625 39.540648 -0.161111 -2.208738 -12.322091 0.288582 21.466318 0.000000 -0.000000 0.000000 0.000000 -0.000000 0.000000 -0.000001 -0.000000 -0.000002 18.427099 -0.459426 -3.531320 7.295527 -0.352583 -0.796545 7.297486 -0.185256 -0.836841 -9.419008 1.041056 2.964137 -33.847139 49.164443 3.507832 -0.000000 -0.000000 -0.000000 -0.000000 -0.000000 -0.000000 -0.000000 -0.000000 -0.000000 3.590635 -8.212472 -8.338661 -17.336424 15.897257 -30.473750 -15.109931 -56.231991 -14.869756 -11.534123 1.944496 -6.382519 40.109948 -15.297156 -0.360497 5.639823 28.097933 11.338840 0.000001 -0.000001 -0.000000 6.882262 2.840078 -61.140384 8.248003 7.640066 -89.897878 -0.000001 -0.000001 -0.000002 -2.345501 4.688867 -62.655204 8.754160 9.897070 -87.051328 0.000001 0.000001 0.000002 -9.042446 10.045683 -60.766171 8.524085 9.508835 -66.893042 0.000000 0.000000 0.000001 -17.946892 14.754995 -51.485843 8.868453 8.667057 -84.811989 0.000005 0.000002 0.000004 -0.000000 0.000002 0.000001 2.195472 10.570687 6.739746 12.334686 -2.089136 49.300609 -23.008783 37.026804 18.727887 -25.845436 16.676409 -17.494138 0.214168 -4.319351 5.919509 1.314354 -24.654498 -5.837879 -0.000001 -0.000002 -0.000003 0.333207 0.054708 1.470547 -0.415180 -0.423076 6.838794 -0.000000 0.000003 0.000004 -0.032246 -5.717555 3.568885 1.219203 -4.302307 24.290262 -0.000000 0.000001 -0.000002 0.521332 -11.018097 4.548194 2.135393 -3.822159 27.589388 -0.000001 -0.000002 0.000002 0.964473 -17.509374 12.312424 4.696306 -2.397695 20.330898 -0.000002 -0.000000 -0.000002 0.000001 -0.000000 -0.000001 0.000002 0.000000 -0.000000 0.000002 0.000000 -0.000000 0.000002 0.000000 -0.000000 0.000002 0.000000 -0.000000 0.000002 0.000000 -0.000001 -0.000000 0.000001 0.000000 0.000002 0.000000 -0.000000 0.000002 0.000000 -0.000001 -0.000000 0.000001 0.000000 -0.000001 0.000002 -0.000001 -0.000001 0.000002 -0.000001 -0.000000 -0.000002 0.000000 
0.582181 74.430923 -1.594577 8.519886 -43.366975 5.922805 -0.000000 -0.000003 0.000000 -44.439991 4.907638 19.515140 35.249121 -13.362669 0.950739 -0.889919 -7.309371 -13.943973 -0.000000 0.000002 -0.000000 -0.000000 0.000002 0.000000 0.000001 0.000002 0.000000 -27.149356 -21.613611 -32.536668 41.717966 -6.301156 0.386653 -12.951150 -0.776813 24.871461 0.000000 0.000001 -0.000000 0.000000 0.000001 -0.000000 0.000001 -0.000000 -0.000002 19.043307 -0.370352 -1.664753 8.434702 -1.248263 0.996151 8.432944 -1.053503 0.978037 -4.999492 -0.762671 5.645550 -37.843257 41.961021 5.245534 -0.000000 -0.000000 -0.000000 -0.000000 -0.000000 -0.000000 -0.000000 -0.000000 -0.000000 3.416892 -8.568159 -4.408958 -14.803030 11.945507 -33.781740 -16.458821 -59.708838 -14.596235 -9.671800 4.965354 -21.142618 40.109951 -15.297156 -0.360504 5.639819 28.097926 11.338839 -0.000000 -0.000001 -0.000004 6.882268 2.840081 -61.140384 8.248002 7.640066 -89.897878 -0.000003 -0.000001 -0.000002 -2.345498 4.688869 -62.655204 8.754156 9.897076 -87.051321 0.000002 0.000001 0.000004 -9.042441 10.045691 -60.766171 8.524091 9.508834 -66.893042 0.000002 0.000000 -0.000002 -17.946887 14.754998 -51.485843 8.868455 8.667058 -84.811989 0.000001 0.000001 -0.000000 -0.000000 0.000001 -0.000000 2.138321 11.266869 6.137827 17.411404 3.777411 45.935939 -16.048071 34.606779 15.226657 -24.851894 19.175862 -10.594054 3.146375 -2.974236 1.047976 0.338255 -25.670414 -2.901100 -0.000003 -0.000001 -0.000002 0.732166 -0.412262 2.206417 -0.830872 -0.784107 8.596235 -0.000005 -0.000001 0.000002 -0.419563 -5.531670 4.555012 1.000263 -4.405253 24.527532 0.000002 -0.000000 -0.000000 -0.173200 -10.295270 4.954417 2.478513 -3.867631 28.313789 0.000001 -0.000001 0.000002 -0.259727 -15.908899 13.341548 6.053402 -2.603421 21.859127 0.000003 -0.000000 0.000000 -0.000002 -0.000000 0.000000 -0.000001 0.000000 0.000000 -0.000001 0.000000 0.000000 -0.000001 0.000000 0.000000 -0.000001 0.000000 0.000000 -0.000001 0.000000 -0.000001 0.000003 0.000001 0.000001 -0.000001 0.000000 0.000000 -0.000001 0.000000 -0.000001 0.000003 0.000001 0.000001 -0.000002 -0.000004 0.000001 -0.000002 -0.000004 0.000001 -0.000000 -0.000003 0.000000 
-0.478632 74.382622 -1.528839 5.162548 -29.766203 5.689103 -0.000000 0.000001 -0.000000 -43.835013 5.735322 12.644523 30.709968 -18.923171 -0.050643 3.350005 -11.915572 -11.940977 0.000000 0.000002 0.000000 0.000000 0.000002 -0.000000 0.000000 0.000002 0.000000 -20.927910 -23.477793 -34.244130 44.233026 -12.485614 1.680373 -13.488497 -1.668454 25.569885 0.000000 -0.000000 0.000000 0.000000 -0.000000 0.000000 0.000001 0.000000 -0.000001 17.947015 0.262432 -1.707163 7.663520 -0.055110 1.868094 7.656336 0.145388 1.807648 11.921185 -3.328151 12.513456 -29.858230 34.396566 5.825773 0.000000 0.000001 0.000003 0.000000 0.000001 0.000003 0.000000 0.000001 0.000003 1.265621 -7.131527 -5.657125 -23.592592 7.588125 -38.951319 11.776955 -59.937123 11.769760 -8.770870 10.933205 -13.361132 40.109944 -15.297153 -0.360504 5.639819 28.097935 11.338841 -0.000000 -0.000001 -0.000000 6.882265 2.840080 -61.140391 8.248004 7.640065 -89.897878 0.000001 -0.000000 -0.000002 -2.345501 4.688868 -62.655204 8.754159 9.897077 -87.051328 -0.000000 0.000000 -0.000002 -9.042441 10.045686 -60.766171 8.524088 9.508835 -66.893049 0.000002 0.000000 0.000001 -17.946891 14.754996 -51.485840 8.868450 8.667059 -84.811989 0.000000 0.000001 -0.000000 0.000001 0.000000 -0.000001 0.254894 10.476043 11.937805 21.048083 3.074636 42.497755 -10.393989 28.226115 14.523721 -24.135633 14.464046 8.084100 6.401483 -2.095821 -3.851043 -0.551802 -26.850010 0.038772 0.000002 -0.000002 0.000001 1.142045 -0.868714 2.949709 -1.226177 -1.169350 10.346300 0.000000 0.000000 0.000002 -0.813177 -5.361012 5.543571 0.782490 -4.510074 24.763257 0.000001 -0.000001 0.000001 -0.877457 -9.587926 5.372611 2.822583 -3.905267 29.040059 -0.000001 0.000000 0.000000 -1.545725 -14.365761 14.409143 7.422745 -2.738236 23.406275 -0.000002 0.000002 -0.000003 -0.000000 0.000001 -0.000000 -0.000000 0.000002 -0.000002 -0.000000 0.000002 -0.000002 -0.000000 0.000002 -0.000002 -0.000000 0.000002 -0.000002 -0.000000 0.000002 -0.000003 -0.000002 -0.000000 -0.000001 -0.000000 0.000002 -0.000002 -0.000000 0.000002 -0.000003 -0.000002 -0.000000 -0.000001 0.000002 0.000000 -0.000001 0.000002 0.000000 -0.000001 -0.000000 0.000001 -0.000000 
